<svg xmlns="http://www.w3.org/2000/svg" width="396.648" height="93.85" viewBox="0 0 396.648 93.85">
  <g id="Group_902" data-name="Group 902" transform="translate(-1371 -531.15)">
    <path id="Path_1117" data-name="Path 1117" d="M40.488-19.656a19.676,19.676,0,0,0-1.512-7.728A18.258,18.258,0,0,0,34.692-33.6a19.9,19.9,0,0,0-6.608-4.116A23.172,23.172,0,0,0,19.656-39.2H5.04V0H19.656a22.79,22.79,0,0,0,8.428-1.512,20.272,20.272,0,0,0,6.608-4.144A18.191,18.191,0,0,0,38.976-11.9,19.881,19.881,0,0,0,40.488-19.656Zm-7.224.112a14.283,14.283,0,0,1-.983,5.371A12.473,12.473,0,0,1,29.53-9.955a12.27,12.27,0,0,1-4.3,2.755,15.358,15.358,0,0,1-5.615.984H11.872V-32.984H19.62a14.974,14.974,0,0,1,5.615,1.012,12.4,12.4,0,0,1,4.3,2.812,12.781,12.781,0,0,1,2.751,4.245A14.279,14.279,0,0,1,33.264-19.544ZM53.2-12.376H74.928q.056-.5.084-.952t.028-.9a20.639,20.639,0,0,0-.9-6.1,15.066,15.066,0,0,0-2.66-5.1A12.725,12.725,0,0,0,67.06-28.9a14.043,14.043,0,0,0-6.188-1.288,13.568,13.568,0,0,0-5.824,1.232,14.474,14.474,0,0,0-4.564,3.332,15.052,15.052,0,0,0-3,4.9,16.726,16.726,0,0,0-1.064,5.992,16.26,16.26,0,0,0,1.176,6.3,14.572,14.572,0,0,0,3.22,4.844A14.526,14.526,0,0,0,55.636-.448,15.769,15.769,0,0,0,61.6.672,15.2,15.2,0,0,0,68.628-.84,16.364,16.364,0,0,0,73.7-4.872L69.72-8.4a14.194,14.194,0,0,1-3.64,2.632,9.915,9.915,0,0,1-4.368.9,8.4,8.4,0,0,1-5.6-1.932A8.925,8.925,0,0,1,53.2-12.376Zm-.056-4.48a9.739,9.739,0,0,1,2.492-5.628,6.831,6.831,0,0,1,5.18-2.156,6.988,6.988,0,0,1,3,.616,7.177,7.177,0,0,1,2.268,1.652,7.815,7.815,0,0,1,1.512,2.464,11.584,11.584,0,0,1,.728,3.052ZM89.1,0V-40.88H82.264V0ZM106.12-23.8h7.952v-5.768H106.12v-8.12H99.288v8.12H95.536V-23.8h3.752V-8.2a11.838,11.838,0,0,0,.621,4.126A6.482,6.482,0,0,0,101.688-1.4a7.01,7.01,0,0,0,2.738,1.46,12.518,12.518,0,0,0,3.43.449,12.976,12.976,0,0,0,3.36-.392,11.772,11.772,0,0,0,2.744-1.12V-6.552a9.278,9.278,0,0,1-4.2,1.008,3.84,3.84,0,0,1-2.688-.871,3.685,3.685,0,0,1-.952-2.837ZM145.656,0V-17.528q0-5.936-3.192-9.212t-9.8-3.276a24.923,24.923,0,0,0-6.216.672,31.182,31.182,0,0,0-5.04,1.792l1.848,5.432a29.349,29.349,0,0,1,3.976-1.344,18.051,18.051,0,0,1,4.48-.5,8.022,8.022,0,0,1,5.4,1.624,5.884,5.884,0,0,1,1.876,4.7v.728a27.6,27.6,0,0,0-3.612-.9,26.384,26.384,0,0,0-4.564-.336,18.59,18.59,0,0,0-4.788.588,11.2,11.2,0,0,0-3.808,1.764,8.172,8.172,0,0,0-2.492,2.968,9.282,9.282,0,0,0-.9,4.2v.112a8.6,8.6,0,0,0,.868,3.948A8.625,8.625,0,0,0,122-1.708,9.935,9.935,0,0,0,125.328.028a13.589,13.589,0,0,0,4.032.588,12.182,12.182,0,0,0,5.712-1.232,12.663,12.663,0,0,0,3.864-3.024V0ZM139.1-10.7a5.507,5.507,0,0,1-.588,2.548,5.731,5.731,0,0,1-1.652,1.96,8.026,8.026,0,0,1-2.492,1.26,10.336,10.336,0,0,1-3.108.448A7.068,7.068,0,0,1,127.2-5.6a3.681,3.681,0,0,1-1.652-3.248V-8.96a4.024,4.024,0,0,1,1.792-3.528,8.706,8.706,0,0,1,4.984-1.232,19.88,19.88,0,0,1,3.724.336,17.341,17.341,0,0,1,3.052.84Z" transform="translate(1466 597)" fill="#fff"/>
    <path id="Path_1118" data-name="Path 1118" d="M5.432-39.2V0h6.832V-39.2ZM28.84-16.65a7.512,7.512,0,0,1,1.832-5.391,6.287,6.287,0,0,1,4.774-1.928A5.832,5.832,0,0,1,40.082-22.1a7.854,7.854,0,0,1,1.638,5.336V0h6.832V-18.816A12.025,12.025,0,0,0,45.816-27.1q-2.736-3.08-7.762-3.08a10.459,10.459,0,0,0-3.1.424A10.241,10.241,0,0,0,32.442-28.6a10.35,10.35,0,0,0-2.01,1.667,16.682,16.682,0,0,0-1.592,2.006v-4.639H22.008V0H28.84Zm57.792,1.866a15.315,15.315,0,0,0-1.176-5.992,15.155,15.155,0,0,0-3.276-4.9,15.3,15.3,0,0,0-4.984-3.3,16.191,16.191,0,0,0-6.3-1.2,15.87,15.87,0,0,0-6.3,1.232,15.67,15.67,0,0,0-4.984,3.332,15.453,15.453,0,0,0-3.3,4.928,15.207,15.207,0,0,0-1.2,6.02A15.111,15.111,0,0,0,56.28-8.708a15.237,15.237,0,0,0,3.276,4.872,15.3,15.3,0,0,0,4.984,3.3,16.044,16.044,0,0,0,6.244,1.2A16.073,16.073,0,0,0,77.112-.56a15.591,15.591,0,0,0,5.012-3.332,15.537,15.537,0,0,0,3.3-4.9A15.006,15.006,0,0,0,86.632-14.784Zm-6.832.112A10.793,10.793,0,0,1,79.188-11a8.85,8.85,0,0,1-1.781,3A8.609,8.609,0,0,1,74.6-5.964a8.749,8.749,0,0,1-3.7.756,8.479,8.479,0,0,1-3.59-.756,8.927,8.927,0,0,1-2.839-2.044A9.226,9.226,0,0,1,62.6-11.06a10.432,10.432,0,0,1-.668-3.724,10.793,10.793,0,0,1,.612-3.668,8.85,8.85,0,0,1,1.781-3,8.609,8.609,0,0,1,2.811-2.044,8.614,8.614,0,0,1,3.646-.756,8.612,8.612,0,0,1,3.645.756,8.727,8.727,0,0,1,2.839,2.072,9.623,9.623,0,0,1,1.864,3.052A10.207,10.207,0,0,1,79.8-14.672ZM105.952-7.84,98-29.568H90.72L102.872.224h6.1l12.1-29.792H113.96ZM151.648,0V-17.528q0-5.936-3.192-9.212t-9.8-3.276a24.923,24.923,0,0,0-6.216.672,31.182,31.182,0,0,0-5.04,1.792l1.848,5.432a29.35,29.35,0,0,1,3.976-1.344,18.051,18.051,0,0,1,4.48-.5,8.022,8.022,0,0,1,5.4,1.624,5.884,5.884,0,0,1,1.876,4.7v.728a27.6,27.6,0,0,0-3.612-.9,26.384,26.384,0,0,0-4.564-.336,18.59,18.59,0,0,0-4.788.588,11.2,11.2,0,0,0-3.808,1.764,8.172,8.172,0,0,0-2.492,2.968,9.282,9.282,0,0,0-.9,4.2v.112a8.6,8.6,0,0,0,.868,3.948,8.625,8.625,0,0,0,2.3,2.856A9.935,9.935,0,0,0,131.32.028a13.589,13.589,0,0,0,4.032.588,12.182,12.182,0,0,0,5.712-1.232,12.663,12.663,0,0,0,3.864-3.024V0ZM145.1-10.7a5.507,5.507,0,0,1-.588,2.548,5.731,5.731,0,0,1-1.652,1.96,8.026,8.026,0,0,1-2.492,1.26,10.336,10.336,0,0,1-3.108.448A7.068,7.068,0,0,1,133.2-5.6a3.681,3.681,0,0,1-1.652-3.248V-8.96a4.024,4.024,0,0,1,1.792-3.528,8.706,8.706,0,0,1,4.984-1.232,19.88,19.88,0,0,1,3.724.336,17.341,17.341,0,0,1,3.052.84Z" transform="translate(1616 597)" fill="#fff"/>
    <path id="Path_1116" data-name="Path 1116" d="M3.474-9.306a1.338,1.338,0,0,1,.54-1.071,2.328,2.328,0,0,1,1.512-.441,4.635,4.635,0,0,1,1.71.333,7.723,7.723,0,0,1,1.71.963L10.134-11.2a7.416,7.416,0,0,0-2.079-1.179,7.219,7.219,0,0,0-2.493-.4,5.476,5.476,0,0,0-1.726.261,3.922,3.922,0,0,0-1.353.747A3.514,3.514,0,0,0,1.6-10.611a3.452,3.452,0,0,0-.321,1.5,3.582,3.582,0,0,0,.28,1.494A2.861,2.861,0,0,0,2.37-6.57a4.573,4.573,0,0,0,1.317.72,15.2,15.2,0,0,0,1.8.522,14.645,14.645,0,0,1,1.435.414,3.631,3.631,0,0,1,.866.423A1.224,1.224,0,0,1,8.217-4a1.522,1.522,0,0,1,.117.612,1.366,1.366,0,0,1-.6,1.17A2.746,2.746,0,0,1,6.1-1.782,5.1,5.1,0,0,1,3.978-2.2,7.74,7.74,0,0,1,2.124-3.42L.792-1.836A7.617,7.617,0,0,0,3.258-.315a7.944,7.944,0,0,0,2.79.5A6.208,6.208,0,0,0,7.865-.072,4.052,4.052,0,0,0,9.28-.81,3.392,3.392,0,0,0,10.2-2a3.72,3.72,0,0,0,.33-1.6,3.349,3.349,0,0,0-.262-1.377A2.951,2.951,0,0,0,9.5-6,4.391,4.391,0,0,0,8.229-6.75,14.211,14.211,0,0,0,6.47-7.308q-.9-.216-1.489-.414a3.67,3.67,0,0,1-.92-.432,1.325,1.325,0,0,1-.46-.5A1.519,1.519,0,0,1,3.474-9.306ZM20.25-12.6V0h2.2V-12.6ZM34.668-9.306a1.338,1.338,0,0,1,.54-1.071,2.328,2.328,0,0,1,1.512-.441,4.635,4.635,0,0,1,1.71.333,7.723,7.723,0,0,1,1.71.963L41.328-11.2a7.416,7.416,0,0,0-2.079-1.179,7.219,7.219,0,0,0-2.493-.4,5.476,5.476,0,0,0-1.726.261,3.922,3.922,0,0,0-1.353.747,3.514,3.514,0,0,0-.884,1.161,3.452,3.452,0,0,0-.321,1.5,3.582,3.582,0,0,0,.28,1.494,2.861,2.861,0,0,0,.812,1.044,4.573,4.573,0,0,0,1.317.72,15.2,15.2,0,0,0,1.8.522,14.646,14.646,0,0,1,1.435.414,3.631,3.631,0,0,1,.866.423A1.224,1.224,0,0,1,39.411-4a1.522,1.522,0,0,1,.117.612,1.366,1.366,0,0,1-.6,1.17,2.746,2.746,0,0,1-1.629.432A5.1,5.1,0,0,1,35.172-2.2,7.74,7.74,0,0,1,33.318-3.42L31.986-1.836A7.617,7.617,0,0,0,34.452-.315a7.944,7.944,0,0,0,2.79.5,6.208,6.208,0,0,0,1.817-.252A4.052,4.052,0,0,0,40.474-.81,3.392,3.392,0,0,0,41.394-2a3.72,3.72,0,0,0,.33-1.6,3.349,3.349,0,0,0-.262-1.377A2.951,2.951,0,0,0,40.7-6a4.391,4.391,0,0,0-1.272-.747,14.211,14.211,0,0,0-1.76-.558q-.9-.216-1.489-.414a3.67,3.67,0,0,1-.92-.432,1.325,1.325,0,0,1-.46-.5A1.519,1.519,0,0,1,34.668-9.306Zm21.978-1.242h4V-12.6H50.418v2.052h4V0h2.232ZM79.29-12.6H69.966V0H79.38V-2H72.162V-5.364H78.48v-2H72.162V-10.6H79.29ZM99.2-9.036V0h2.2V-12.6H99.036L95.2-6.642,91.368-12.6H89.01V0h2.2V-9l3.942,5.9h.072Zm18.936-3.654h-2.052L110.538,0h2.268l1.3-3.042h5.958L121.338,0h2.34ZM119.25-5h-4.338l2.16-5.04Zm15.426-4.3a1.338,1.338,0,0,1,.54-1.071,2.328,2.328,0,0,1,1.512-.441,4.635,4.635,0,0,1,1.71.333,7.723,7.723,0,0,1,1.71.963l1.188-1.674a7.416,7.416,0,0,0-2.079-1.179,7.219,7.219,0,0,0-2.493-.4,5.476,5.476,0,0,0-1.726.261,3.922,3.922,0,0,0-1.353.747,3.514,3.514,0,0,0-.884,1.161,3.452,3.452,0,0,0-.321,1.5,3.582,3.582,0,0,0,.28,1.494,2.861,2.861,0,0,0,.812,1.044,4.573,4.573,0,0,0,1.317.72,15.194,15.194,0,0,0,1.8.522,14.644,14.644,0,0,1,1.435.414,3.631,3.631,0,0,1,.866.423,1.224,1.224,0,0,1,.433.495,1.522,1.522,0,0,1,.117.612,1.366,1.366,0,0,1-.6,1.17,2.745,2.745,0,0,1-1.629.432A5.1,5.1,0,0,1,135.18-2.2a7.74,7.74,0,0,1-1.854-1.215l-1.332,1.584A7.617,7.617,0,0,0,134.46-.315a7.944,7.944,0,0,0,2.79.5,6.208,6.208,0,0,0,1.817-.252,4.052,4.052,0,0,0,1.416-.738A3.392,3.392,0,0,0,141.4-2a3.72,3.72,0,0,0,.33-1.6,3.349,3.349,0,0,0-.262-1.377A2.952,2.952,0,0,0,140.7-6a4.391,4.391,0,0,0-1.272-.747,14.21,14.21,0,0,0-1.76-.558q-.9-.216-1.489-.414a3.67,3.67,0,0,1-.92-.432,1.325,1.325,0,0,1-.46-.5A1.519,1.519,0,0,1,134.676-9.306Z" transform="translate(1470 622)" fill="#fff"/>
    <g id="Group_877" data-name="Group 877" transform="translate(1371 531.15)">
      <path id="Path_242" data-name="Path 242" d="M171.715,43.786V32.33L131.067,8.867,121.1,14.6l50.613,29.191Zm15.38-8.867L136.56,5.728,146.447,0l40.647,23.462V34.919ZM156.413,52.653,105.8,23.462l9.966-5.728L156.413,41.2Z" transform="translate(-105.8)" fill="#f6f7f6" fill-rule="evenodd"/>
      <path id="Path_243" data-name="Path 243" d="M181.96,32.028l9.966-5.728,4.944,2.9v5.728l-4.944,2.9-9.966-5.807ZM166.58,40.9l9.966-5.728,4.944,2.9V43.8l-4.944,2.9L166.58,40.9Zm-5.414,14.6L151.2,49.762l9.966-5.728,4.944,2.9v5.728Z" transform="translate(-115.575 -5.662)" fill="#efefef" fill-rule="evenodd"/>
      <path id="Path_244" data-name="Path 244" d="M115.766,82.553,105.8,76.825,187.095,29.9V41.357Z" transform="translate(-105.8 -6.437)" fill="#fff" fill-rule="evenodd"/>
      <path id="Path_245" data-name="Path 245" d="M154.866,110.019l-9.966-5.728L195.513,75.1V86.557Z" transform="translate(-114.218 -16.169)" fill="#fff" fill-rule="evenodd"/>
      <path id="Path_246" data-name="Path 246" d="M135.287,96.286,125.4,90.558,191.315,52.5V63.957Z" transform="translate(-110.02 -11.303)" fill="#fff" fill-rule="evenodd"/>
    </g>
  </g>
</svg>
